<svg width="16" height="16" viewBox="0 0 16 16" fill="none" xmlns="http://www.w3.org/2000/svg">
<path fill-rule="evenodd" clip-rule="evenodd" d="M6.19569 14C5.0917 14 4.04236 13.556 3.24103 12.75C1.64903 11.148 1.5837 8.60798 3.09503 7.08731L8.01903 2.13398C8.53169 1.61798 9.2237 1.33331 9.96703 1.33331C10.7624 1.33331 11.5184 1.65265 12.095 2.23265C13.2424 3.38665 13.2864 5.22065 12.1924 6.32065L7.26236 11.2733C6.94303 11.5953 6.51303 11.772 6.05169 11.772C5.56436 11.772 5.10236 11.5773 4.7517 11.2246C4.0497 10.5173 4.0277 9.38998 4.70303 8.70998L9.25303 4.13998C9.51303 3.87865 9.93436 3.87731 10.1957 4.13731C10.4564 4.39731 10.4577 4.81931 10.1977 5.07998L5.64836 9.65065C5.48836 9.81198 5.51036 10.0966 5.6977 10.2846C5.79503 10.3826 5.92436 10.4386 6.05169 10.4386C6.12503 10.4386 6.23036 10.4206 6.31703 10.3333L11.247 5.38065C11.825 4.79865 11.7817 3.80865 11.1497 3.17265C10.545 2.56465 9.51903 2.51665 8.96436 3.07398L4.04036 8.02731C3.04436 9.02931 3.1097 10.7266 4.18703 11.81C4.7357 12.3626 5.44903 12.6666 6.19569 12.6666C6.86303 12.6666 7.4817 12.4146 7.93636 11.9573L12.861 7.00398C13.1204 6.74331 13.5424 6.74131 13.8037 7.00131C14.0644 7.26131 14.0657 7.68265 13.8064 7.94398L8.88169 12.8973C8.17503 13.608 7.22103 14 6.19569 14Z" fill="#231F20"/>
<mask id="mask0" mask-type="alpha" maskUnits="userSpaceOnUse" x="2" y="1" width="12" height="13">
<path fill-rule="evenodd" clip-rule="evenodd" d="M6.19569 14C5.0917 14 4.04236 13.556 3.24103 12.75C1.64903 11.148 1.5837 8.60798 3.09503 7.08731L8.01903 2.13398C8.53169 1.61798 9.2237 1.33331 9.96703 1.33331C10.7624 1.33331 11.5184 1.65265 12.095 2.23265C13.2424 3.38665 13.2864 5.22065 12.1924 6.32065L7.26236 11.2733C6.94303 11.5953 6.51303 11.772 6.05169 11.772C5.56436 11.772 5.10236 11.5773 4.7517 11.2246C4.0497 10.5173 4.0277 9.38998 4.70303 8.70998L9.25303 4.13998C9.51303 3.87865 9.93436 3.87731 10.1957 4.13731C10.4564 4.39731 10.4577 4.81931 10.1977 5.07998L5.64836 9.65065C5.48836 9.81198 5.51036 10.0966 5.6977 10.2846C5.79503 10.3826 5.92436 10.4386 6.05169 10.4386C6.12503 10.4386 6.23036 10.4206 6.31703 10.3333L11.247 5.38065C11.825 4.79865 11.7817 3.80865 11.1497 3.17265C10.545 2.56465 9.51903 2.51665 8.96436 3.07398L4.04036 8.02731C3.04436 9.02931 3.1097 10.7266 4.18703 11.81C4.7357 12.3626 5.44903 12.6666 6.19569 12.6666C6.86303 12.6666 7.4817 12.4146 7.93636 11.9573L12.861 7.00398C13.1204 6.74331 13.5424 6.74131 13.8037 7.00131C14.0644 7.26131 14.0657 7.68265 13.8064 7.94398L8.88169 12.8973C8.17503 13.608 7.22103 14 6.19569 14Z" fill="white"/>
</mask>
<g mask="url(#mask0)">
<rect width="16" height="16" fill="black"/>
</g>
</svg>
