<svg width="14" height="14" viewBox="0 0 14 14" fill="none" xmlns="http://www.w3.org/2000/svg">
<path fill-rule="evenodd" clip-rule="evenodd" d="M4.08333 9.33317C4.08333 9.01234 4.34583 8.74984 4.66667 8.74984C4.9875 8.74984 5.25 9.01234 5.25 9.33317C5.25 9.654 4.9875 9.9165 4.66667 9.9165C4.34583 9.9165 4.08333 9.654 4.08333 9.33317ZM7 8.74984H9.33333C9.65417 8.74984 9.91667 9.01234 9.91667 9.33317C9.91667 9.654 9.65417 9.9165 9.33333 9.9165H7C6.67917 9.9165 6.41667 9.654 6.41667 9.33317C6.41667 9.01234 6.67917 8.74984 7 8.74984ZM10.5 11.6665H3.5C3.17858 11.6665 2.91667 11.4046 2.91667 11.0832V7.58317H11.0833V11.0832C11.0833 11.4046 10.8214 11.6665 10.5 11.6665ZM3.5 3.49984H4.08333V4.08317C4.08333 4.404 4.34583 4.6665 4.66667 4.6665C4.9875 4.6665 5.25 4.404 5.25 4.08317V3.49984H8.75V4.08317C8.75 4.404 9.0125 4.6665 9.33333 4.6665C9.65417 4.6665 9.91667 4.404 9.91667 4.08317V3.49984H10.5C10.8214 3.49984 11.0833 3.76175 11.0833 4.08317V6.4165H2.91667V4.08317C2.91667 3.76175 3.17858 3.49984 3.5 3.49984ZM10.5 2.33317H9.91667V1.74984C9.91667 1.429 9.65417 1.1665 9.33333 1.1665C9.0125 1.1665 8.75 1.429 8.75 1.74984V2.33317H5.25V1.74984C5.25 1.429 4.9875 1.1665 4.66667 1.1665C4.34583 1.1665 4.08333 1.429 4.08333 1.74984V2.33317H3.5C2.53517 2.33317 1.75 3.11834 1.75 4.08317V11.0832C1.75 12.048 2.53517 12.8332 3.5 12.8332H10.5C11.4648 12.8332 12.25 12.048 12.25 11.0832V4.08317C12.25 3.11834 11.4648 2.33317 10.5 2.33317Z" fill="#00094A"/>
<mask id="mask0" mask-type="alpha" maskUnits="userSpaceOnUse" x="1" y="1" width="12" height="12">
<path fill-rule="evenodd" clip-rule="evenodd" d="M4.08333 9.33317C4.08333 9.01234 4.34583 8.74984 4.66667 8.74984C4.9875 8.74984 5.25 9.01234 5.25 9.33317C5.25 9.654 4.9875 9.9165 4.66667 9.9165C4.34583 9.9165 4.08333 9.654 4.08333 9.33317ZM7 8.74984H9.33333C9.65417 8.74984 9.91667 9.01234 9.91667 9.33317C9.91667 9.654 9.65417 9.9165 9.33333 9.9165H7C6.67917 9.9165 6.41667 9.654 6.41667 9.33317C6.41667 9.01234 6.67917 8.74984 7 8.74984ZM10.5 11.6665H3.5C3.17858 11.6665 2.91667 11.4046 2.91667 11.0832V7.58317H11.0833V11.0832C11.0833 11.4046 10.8214 11.6665 10.5 11.6665ZM3.5 3.49984H4.08333V4.08317C4.08333 4.404 4.34583 4.6665 4.66667 4.6665C4.9875 4.6665 5.25 4.404 5.25 4.08317V3.49984H8.75V4.08317C8.75 4.404 9.0125 4.6665 9.33333 4.6665C9.65417 4.6665 9.91667 4.404 9.91667 4.08317V3.49984H10.5C10.8214 3.49984 11.0833 3.76175 11.0833 4.08317V6.4165H2.91667V4.08317C2.91667 3.76175 3.17858 3.49984 3.5 3.49984ZM10.5 2.33317H9.91667V1.74984C9.91667 1.429 9.65417 1.1665 9.33333 1.1665C9.0125 1.1665 8.75 1.429 8.75 1.74984V2.33317H5.25V1.74984C5.25 1.429 4.9875 1.1665 4.66667 1.1665C4.34583 1.1665 4.08333 1.429 4.08333 1.74984V2.33317H3.5C2.53517 2.33317 1.75 3.11834 1.75 4.08317V11.0832C1.75 12.048 2.53517 12.8332 3.5 12.8332H10.5C11.4648 12.8332 12.25 12.048 12.25 11.0832V4.08317C12.25 3.11834 11.4648 2.33317 10.5 2.33317Z" fill="white"/>
</mask>
<g mask="url(#mask0)">
<rect width="14" height="14" fill="#00094A"/>
</g>
</svg>
