<svg width="44" height="10" viewBox="0 0 44 10" fill="none" xmlns="http://www.w3.org/2000/svg">
<path fill-rule="evenodd" clip-rule="evenodd" d="M23.5111 0.623253L26.3767 3.48891C27.2077 4.31992 27.2077 5.68008 26.3767 6.51109L23.5111 9.37675C22.6801 10.2078 21.3199 10.2078 20.4889 9.37675L17.6233 6.51109C16.7922 5.68008 16.7922 4.31992 17.6233 3.48891L20.4889 0.623253C21.3199 -0.207751 22.6782 -0.207751 23.5111 0.623253Z" fill="#06A39C"/>
<path fill-rule="evenodd" clip-rule="evenodd" d="M4.55776 2.43677L6.56372 4.44273C7.14542 5.02443 7.14542 5.97655 6.56372 6.55825L4.55776 8.56421C3.97606 9.14591 3.02394 9.14591 2.44224 8.56421L0.436277 6.55825C-0.145426 5.97655 -0.145426 5.02443 0.436277 4.44273L2.44224 2.43677C3.02394 1.85506 3.97475 1.85506 4.55776 2.43677Z" fill="#B4E3E1"/>
<path fill-rule="evenodd" clip-rule="evenodd" d="M41.5578 2.43823L43.5638 4.44419C44.1455 5.02589 44.1455 5.97801 43.5638 6.55972L41.5578 8.56568C40.9761 9.14738 40.024 9.14738 39.4423 8.56568L37.4363 6.55972C36.8546 5.97801 36.8546 5.02589 37.4363 4.44419L39.4423 2.43823C40.024 1.85653 40.9748 1.85653 41.5578 2.43823Z" fill="#B4E3E1"/>
</svg>
