<svg width="30" height="30" viewBox="0 0 30 30" fill="none" xmlns="http://www.w3.org/2000/svg">
<path d="M15.005 7.29663C10.7514 7.29663 7.30768 10.7441 7.30768 14.994C7.30768 19.2477 10.7551 22.6914 15.005 22.6914C19.2587 22.6914 22.7024 19.2439 22.7024 14.994C22.7024 10.7403 19.255 7.29663 15.005 7.29663ZM15.005 19.9902C12.2438 19.9902 10.0089 17.7539 10.0089 14.994C10.0089 12.234 12.2451 9.99783 15.005 9.99783C17.765 9.99783 20.0012 12.234 20.0012 14.994C20.0025 17.7539 17.7662 19.9902 15.005 19.9902Z" fill="#00094A"/>
<path d="M21.1849 0.0942317C18.425 -0.0345161 11.5888 -0.0282662 8.82638 0.0942317C6.39892 0.20798 4.25771 0.794219 2.53149 2.52044C-0.35346 5.40539 0.0152838 9.29282 0.0152838 14.994C0.0152838 20.8289 -0.30971 24.6263 2.53149 27.4675C5.42769 30.3625 9.37137 29.9837 15.005 29.9837C20.7849 29.9837 22.7799 29.9875 24.8236 29.1962C27.6023 28.1175 29.6998 25.6338 29.9048 21.1726C30.0348 18.4114 30.0273 11.5765 29.9048 8.81408C29.6573 3.54792 26.8311 0.354227 21.1849 0.0942317ZM25.5536 25.5588C23.6624 27.45 21.0387 27.2813 14.9688 27.2813C8.71888 27.2813 6.21268 27.3738 4.38396 25.54C2.27774 23.4438 2.65899 20.0776 2.65899 14.974C2.65899 8.06784 1.95025 3.09418 8.88138 2.73919C10.4739 2.68294 10.9426 2.66419 14.9513 2.66419L15.0075 2.70169C21.6687 2.70169 26.8948 2.0042 27.2086 8.93408C27.2798 10.5153 27.2961 10.9903 27.2961 14.9927C27.2948 21.1701 27.4123 23.6913 25.5536 25.5588Z" fill="#00094A"/>
<path d="M23.0073 8.79159C24.0007 8.79159 24.8061 7.98628 24.8061 6.99287C24.8061 5.99947 24.0007 5.19415 23.0073 5.19415C22.0139 5.19415 21.2086 5.99947 21.2086 6.99287C21.2086 7.98628 22.0139 8.79159 23.0073 8.79159Z" fill="#00094A"/>
</svg>
