<svg width="20" height="20" viewBox="0 0 20 20" fill="none" xmlns="http://www.w3.org/2000/svg">
<path fill-rule="evenodd" clip-rule="evenodd" d="M14.489 16.6667C8.33633 16.6667 3.33108 11.6567 3.33108 5.49999C3.33108 4.30499 4.30198 3.33332 5.49605 3.33332C5.58681 3.33332 5.67674 3.33916 5.76834 3.35082L6.65181 7.20166C6.54259 7.25852 6.4257 7.3197 6.31168 7.37938L6.31138 7.37954L6.20383 7.43582C5.48606 7.81082 4.91983 8.10749 5.2171 8.76166C6.19634 11.55 8.44375 13.8 11.1966 14.7667C11.8979 15.0479 12.1701 14.5271 12.5464 13.807L12.5514 13.7975C12.5946 13.7156 12.639 13.6302 12.6831 13.5455L12.6833 13.5453L12.6833 13.5451C12.719 13.4765 12.7544 13.4085 12.7887 13.3433L16.6357 14.2267C16.6482 14.3167 16.654 14.4075 16.654 14.5C16.654 15.695 15.6831 16.6667 14.489 16.6667ZM18.112 13.2567C18.0179 12.9858 17.7914 12.7825 17.5117 12.7183L12.5455 11.5775C12.2716 11.5158 11.9851 11.5933 11.7828 11.7883C11.6637 11.9017 11.6612 11.905 11.12 12.9392C9.34637 12.1308 7.89334 10.6817 7.05733 8.86999C8.08902 8.32916 8.09152 8.32666 8.2056 8.20832C8.40044 8.00499 8.47872 7.71832 8.41627 7.44499L7.27632 2.47499C7.21221 2.19499 7.0082 1.96749 6.73758 1.87332C6.5394 1.80499 6.33539 1.75332 6.13388 1.72082C5.92655 1.68499 5.71255 1.66666 5.49605 1.66666C3.38353 1.66666 1.66571 3.38582 1.66571 5.49999C1.66571 12.5767 7.41788 18.3333 14.489 18.3333C16.6007 18.3333 18.3194 16.6142 18.3194 14.5C18.3194 14.285 18.3002 14.0725 18.2652 13.8658C18.2319 13.6575 18.1803 13.4533 18.112 13.2567ZM10.8249 6.66666C12.2022 6.66666 13.3229 7.78832 13.3229 9.16666C13.3229 9.62749 13.6952 9.99999 14.1556 9.99999C14.6161 9.99999 14.9883 9.62749 14.9883 9.16666C14.9883 6.86916 13.1206 4.99999 10.8249 4.99999C10.3653 4.99999 9.99222 5.37249 9.99222 5.83332C9.99222 6.29416 10.3653 6.66666 10.8249 6.66666ZM16.6537 9.16666C16.6537 5.95082 14.0382 3.33332 10.8249 3.33332C10.3653 3.33332 9.99222 2.96082 9.99222 2.49999C9.99222 2.03916 10.3653 1.66666 10.8249 1.66666C14.9575 1.66666 18.319 5.03082 18.319 9.16666C18.319 9.62749 17.9468 9.99999 17.4864 9.99999C17.0259 9.99999 16.6537 9.62749 16.6537 9.16666Z" fill="#231F20"/>
<mask id="mask0" mask-type="alpha" maskUnits="userSpaceOnUse" x="1" y="1" width="18" height="18">
<path fill-rule="evenodd" clip-rule="evenodd" d="M14.489 16.6667C8.33633 16.6667 3.33108 11.6567 3.33108 5.49999C3.33108 4.30499 4.30198 3.33332 5.49605 3.33332C5.58681 3.33332 5.67674 3.33916 5.76834 3.35082L6.65181 7.20166C6.54259 7.25852 6.4257 7.3197 6.31168 7.37938L6.31138 7.37954L6.20383 7.43582C5.48606 7.81082 4.91983 8.10749 5.2171 8.76166C6.19634 11.55 8.44375 13.8 11.1966 14.7667C11.8979 15.0479 12.1701 14.5271 12.5464 13.807L12.5514 13.7975C12.5946 13.7156 12.639 13.6302 12.6831 13.5455L12.6833 13.5453L12.6833 13.5451C12.719 13.4765 12.7544 13.4085 12.7887 13.3433L16.6357 14.2267C16.6482 14.3167 16.654 14.4075 16.654 14.5C16.654 15.695 15.6831 16.6667 14.489 16.6667ZM18.112 13.2567C18.0179 12.9858 17.7914 12.7825 17.5117 12.7183L12.5455 11.5775C12.2716 11.5158 11.9851 11.5933 11.7828 11.7883C11.6637 11.9017 11.6612 11.905 11.12 12.9392C9.34637 12.1308 7.89334 10.6817 7.05733 8.86999C8.08902 8.32916 8.09152 8.32666 8.2056 8.20832C8.40044 8.00499 8.47872 7.71832 8.41627 7.44499L7.27632 2.47499C7.21221 2.19499 7.0082 1.96749 6.73758 1.87332C6.5394 1.80499 6.33539 1.75332 6.13388 1.72082C5.92655 1.68499 5.71255 1.66666 5.49605 1.66666C3.38353 1.66666 1.66571 3.38582 1.66571 5.49999C1.66571 12.5767 7.41788 18.3333 14.489 18.3333C16.6007 18.3333 18.3194 16.6142 18.3194 14.5C18.3194 14.285 18.3002 14.0725 18.2652 13.8658C18.2319 13.6575 18.1803 13.4533 18.112 13.2567ZM10.8249 6.66666C12.2022 6.66666 13.3229 7.78832 13.3229 9.16666C13.3229 9.62749 13.6952 9.99999 14.1556 9.99999C14.6161 9.99999 14.9883 9.62749 14.9883 9.16666C14.9883 6.86916 13.1206 4.99999 10.8249 4.99999C10.3653 4.99999 9.99222 5.37249 9.99222 5.83332C9.99222 6.29416 10.3653 6.66666 10.8249 6.66666ZM16.6537 9.16666C16.6537 5.95082 14.0382 3.33332 10.8249 3.33332C10.3653 3.33332 9.99222 2.96082 9.99222 2.49999C9.99222 2.03916 10.3653 1.66666 10.8249 1.66666C14.9575 1.66666 18.319 5.03082 18.319 9.16666C18.319 9.62749 17.9468 9.99999 17.4864 9.99999C17.0259 9.99999 16.6537 9.62749 16.6537 9.16666Z" fill="white"/>
</mask>
<g mask="url(#mask0)">
<rect width="19.9844" height="20" fill="#00094A"/>
</g>
</svg>
