<svg width="98" height="100" viewBox="0 0 98 100" fill="none" xmlns="http://www.w3.org/2000/svg">
<path fill-rule="evenodd" clip-rule="evenodd" d="M49.0001 8.33337C71.5517 8.33337 89.8334 26.9882 89.8334 50C89.8334 73.0119 71.5517 91.6667 49.0001 91.6667C26.4485 91.6667 8.16675 73.0119 8.16675 50C8.16675 26.9882 26.4485 8.33337 49.0001 8.33337Z" stroke="#30D2A3" stroke-width="5" stroke-linecap="round" stroke-linejoin="round"/>
<path fill-rule="evenodd" clip-rule="evenodd" d="M61.4534 51.9452C58.4766 55.2202 50.3753 60.7619 46.2307 62.5411C45.5692 62.8244 43.8828 63.4244 43.5194 63.4327C42.7476 63.4577 42.0044 63.0161 41.6451 62.3077C41.5063 62.0327 41.0979 60.2369 40.9673 59.4369C40.5794 57.0036 40.3793 53.2244 40.3834 49.4244C40.3793 45.4369 40.5957 41.4786 41.0285 39.0702C41.1429 38.4202 41.4777 36.9244 41.5757 36.6827C41.7594 36.2327 42.0943 35.8786 42.4985 35.6577C42.8089 35.4869 43.1641 35.3952 43.5194 35.4077C43.8828 35.4161 45.3609 35.9452 45.8673 36.1494C49.8608 37.7327 58.3092 43.4744 61.4125 46.8494C61.6902 47.1536 62.4538 47.9702 62.5804 48.1369C62.8703 48.5119 63.0132 48.9661 63.0132 49.4244C63.0132 49.8494 62.8866 50.2827 62.6253 50.6452C62.4905 50.8327 61.7106 51.6661 61.4534 51.9452Z" stroke="#30D2A3" stroke-width="5" stroke-linecap="round" stroke-linejoin="round"/>
</svg>
