<svg width="43" height="30" viewBox="0 0 43 30" fill="none" xmlns="http://www.w3.org/2000/svg">
<path d="M41.4164 4.28649L41.4693 4.63237C40.9575 2.81649 39.5758 1.41532 37.8199 0.905318L37.7828 0.896494C34.4811 2.41925e-05 21.1946 2.43883e-05 21.1946 2.43883e-05C21.1946 2.43883e-05 7.94169 -0.0176228 4.6064 0.896494C2.81699 1.41532 1.43346 2.81649 0.930518 4.59531L0.921695 4.63237C-0.311833 11.0753 -0.320657 18.8171 0.976401 25.7153L0.921695 25.3659C1.43346 27.1818 2.81522 28.5829 4.5711 29.0929L4.60816 29.1018C7.90639 30 21.1964 30 21.1964 30C21.1964 30 34.4475 30 37.7846 29.1018C39.5758 28.5829 40.9593 27.1818 41.4622 25.4029L41.4711 25.3659C42.0322 22.3694 42.3534 18.9212 42.3534 15.3988C42.3534 15.27 42.3534 15.1394 42.3517 15.0088C42.3534 14.8888 42.3534 14.7459 42.3534 14.603C42.3534 11.0788 42.0322 7.63061 41.4164 4.28649ZM16.9558 21.4429V8.57296L28.0134 15.0177L16.9558 21.4429Z" fill="#00094A"/>
</svg>
